<?xml version="1.0" encoding="UTF-8"?>
<svg version="1.1" xmlns="http://www.w3.org/2000/svg" width="887" height="891">
<path d="M0 0 C292.71 0 585.42 0 887 0 C887 294.03 887 588.06 887 891 C594.29 891 301.58 891 0 891 C0 596.97 0 302.94 0 0 Z " fill="#202020" transform="translate(0,0)"/>
<path d="M0 0 C17.29093152 -0.04693628 34.58184286 -0.08209398 51.87282372 -0.10362434 C59.90319334 -0.11389158 67.93352314 -0.12786366 75.96386719 -0.15087891 C82.97156448 -0.17095346 89.9792329 -0.18374942 96.98695815 -0.18817699 C100.68981164 -0.19076083 104.39258262 -0.1967362 108.09540939 -0.21146011 C146.80105899 -0.35918363 178.48187548 4.93216166 207 33 C223.2728452 49.24167117 232.67743605 69.65454227 237 92 C237.26151855 93.16523193 237.26151855 93.16523193 237.52832031 94.35400391 C242.53741591 122.453682 234.80077112 152.59402257 219 176 C216.4633873 179.45389285 213.77966066 182.73997079 211 186 C210.40832031 186.73734375 209.81664062 187.4746875 209.20703125 188.234375 C196.08574391 204.01349239 178.09895931 213.45178538 159 220 C162.15708556 226.6431974 165.87866546 232.79052781 169.8125 239 C171.15897007 241.13924997 172.50532083 243.27857504 173.8515625 245.41796875 C174.53895508 246.50770996 175.22634766 247.59745117 175.93457031 248.72021484 C179.2013983 253.90775233 182.44293176 259.11102398 185.6875 264.3125 C190.62580029 272.22002744 195.59134345 280.10963322 200.58056641 287.98510742 C204.83504878 294.71244519 209.01424385 301.48528071 213.18676758 308.26367188 C217.26347703 314.86553039 221.45176088 321.388376 225.75024414 327.84814453 C229 332.78591887 229 332.78591887 229 335 C242.53 335 256.06 335 270 335 C270.33 333.68 270.66 332.36 271 331 C272.375 328.75 272.375 328.75 275 327 C279.44404332 326.24312387 283.86590048 325.99085216 288.015625 327.953125 C290.3753844 329.76303755 291.82318765 331.53271022 292.875 334.3125 C292.936875 335.6428125 292.936875 335.6428125 293 337 C293.165 338.299375 293.33 339.59875 293.5 340.9375 C293.4341054 344.41014517 292.58691983 346.05541764 290.125 348.5 C285.70431731 351.85862956 281.32661004 351.57874636 276 351 C276 350.34 276 349.68 276 349 C275.071875 348.9071875 275.071875 348.9071875 274.125 348.8125 C273.42375 348.544375 272.7225 348.27625 272 348 C270.8671875 345.44921875 270.8671875 345.44921875 270 343 C268.87628494 343.04663284 267.75256989 343.09326569 266.59480286 343.14131165 C255.96071251 343.56858655 245.32837756 343.88250701 234.68762684 344.08805561 C229.21720925 344.19730673 223.7537585 344.34514958 218.28735352 344.58422852 C183.06167342 346.08488402 183.06167342 346.08488402 174.82736206 341.06640625 C170.11586435 336.31535255 167.80359097 330.88306496 165.84707642 324.5619812 C164.6801422 321.03259061 162.96733029 318.43084011 160.87109375 315.3671875 C160.29786377 314.4496167 159.72463379 313.5320459 159.1340332 312.58666992 C158.57417725 311.69181885 158.01432129 310.79696777 157.4375 309.875 C156.81383545 308.87766846 156.1901709 307.88033691 155.54760742 306.8527832 C149.72649336 297.55072755 143.86910239 288.27182706 138 279 C130.7423169 267.53453593 123.51758591 256.04939304 116.33862305 244.53442383 C115.74605713 243.58462646 115.15349121 242.6348291 114.54296875 241.65625 C113.96466309 240.728125 113.38635742 239.8 112.79052734 238.84375 C111.53890789 236.85590388 110.27234505 234.87742349 108.99462891 232.90625 C108.35315918 231.91625 107.71168945 230.92625 107.05078125 229.90625 C106.46594971 229.01228516 105.88111816 228.11832031 105.27856445 227.19726562 C104 225 104 225 104 223 C85.85 223 67.7 223 49 223 C49 262.6 49 302.2 49 343 C33.16 343 17.32 343 1 343 C0.81919831 327.23131128 0.67192281 311.46344772 0.58550262 295.69402313 C0.54430413 288.37148349 0.48816865 281.04963498 0.39648438 273.72753906 C0.31658143 267.34326404 0.2650959 260.95948966 0.24729204 254.57472849 C0.23688896 251.19576928 0.2125605 247.81824185 0.15415955 244.43974304 C0.09600207 240.66144238 0.08809082 236.88609876 0.09179688 233.10742188 C0.06303467 231.99539398 0.03427246 230.88336609 0.00463867 229.73764038 C0.06700494 223.85379419 0.66187813 220.67137592 4.88708496 216.41394043 C6.24067011 215.25533377 7.61022224 214.11493495 9 213 C10.34384766 211.64841797 10.34384766 211.64841797 11.71484375 210.26953125 C13.20714407 208.7874347 14.71960569 207.32529172 16.25390625 205.88671875 C24.33571436 198.1878051 32.53621056 188.97874626 37.52876282 178.91989136 C40.35943073 175.57531447 40.35943073 175.57531447 43.98664856 175.26742554 C45.63654695 175.24450144 47.28710049 175.2546287 48.93676758 175.29052734 C49.8398465 175.28632278 50.74292542 175.28211823 51.67337036 175.27778625 C54.66443356 175.27006683 57.65365524 175.30371476 60.64453125 175.3359375 C62.73280741 175.33484312 64.82108414 175.33053219 66.90934753 175.32315063 C72.41938071 175.30972049 77.92876378 175.32858736 83.4387207 175.35760498 C92.21767472 175.40286878 100.99626143 175.41841182 109.77530479 175.39805984 C112.82353596 175.3984289 115.87081186 175.42407178 118.91889954 175.45175171 C138.33836923 175.51484765 155.25195389 171.65037306 170.39453125 158.60546875 C178.53210285 150.46789715 183.57105407 140.93516791 187 130 C187.24492188 129.27941406 187.48984375 128.55882812 187.7421875 127.81640625 C192.33222385 111.68840183 188.85854912 94.12362929 181.14453125 79.74609375 C173.36042467 65.83326126 161.12220561 55.48254986 145.75453281 50.9320631 C135.1159732 48.03131451 125.30606646 47.44759499 114.31988716 47.77519798 C111.35326057 47.85792682 108.38875663 47.89714382 105.42112732 47.92463684 C97.00172994 48.00553054 88.58486204 48.12558669 80.16821289 48.35961914 C74.97790892 48.5008716 69.79157914 48.56295605 64.59943962 48.57552528 C62.64111523 48.59526552 60.6828375 48.64411563 58.72604561 48.72405052 C43.93518113 49.31479574 43.93518113 49.31479574 39.02628708 45.44345474 C35.44090147 41.66127574 32.73149669 37.44126893 30.15040398 32.93335915 C22.83567526 20.64028823 10.88965576 10.1169211 0 1 C0 0.67 0 0.34 0 0 Z " fill="#222222" transform="translate(422,282)"/>
<path d="M0 0 C168.42812983 0 168.42812983 0 202 29 C202.74765625 29.64453125 203.4953125 30.2890625 204.265625 30.953125 C219.1369311 44.85719168 229.80733583 64.45973364 235 84 C235.18256348 84.67844971 235.36512695 85.35689941 235.55322266 86.0559082 C237.51767137 94.36737619 237.48217682 102.81948336 237.5 111.3125 C237.50451675 112.50879028 237.50451675 112.50879028 237.50912476 113.72924805 C237.50596461 126.98857327 235.9320609 138.59825824 231 151 C230.59394531 152.13308594 230.18789063 153.26617187 229.76953125 154.43359375 C224.57535604 168.06608773 216.79110945 179.33663135 207 190 C206.27039063 190.81210937 205.54078125 191.62421875 204.7890625 192.4609375 C190.60649598 207.48707675 171.10458883 217.63042157 151 222 C149.93781502 222.24960732 149.93781502 222.24960732 148.85417175 222.5042572 C140.230399 224.33053154 131.71865516 224.25524522 122.95703125 224.1953125 C121.33607662 224.19157416 119.7151197 224.18873107 118.09416199 224.18673706 C113.86426358 224.17916519 109.63450638 224.1595735 105.40466309 224.1373291 C100.31002469 224.11309748 95.21533862 224.10405894 90.12065887 224.09242249 C82.4136749 224.07314422 74.7069997 224.03477714 67 224 C67 208.16 67 192.32 67 176 C71.99769531 175.96261719 76.99539063 175.92523438 82.14453125 175.88671875 C85.33011115 175.85640607 88.5156374 175.82523678 91.70117188 175.79101562 C96.74598322 175.73690139 101.79068846 175.6857844 106.83569336 175.65356445 C110.9078003 175.62735808 114.97954632 175.58683658 119.05142784 175.53681374 C120.59692548 175.52026123 122.14248537 175.50867523 123.68805885 175.50238609 C135.64929143 175.44883805 146.15983696 174.11707466 156.75 168.1875 C157.39340332 167.83204102 158.03680664 167.47658203 158.69970703 167.11035156 C171.38861566 159.94355774 180.00831701 148.70265918 185 135 C185.31839844 134.15953125 185.63679687 133.3190625 185.96484375 132.453125 C188.1366517 125.52735955 188.30766206 118.63632897 188.375 111.4375 C188.38893799 110.48004883 188.40287598 109.52259766 188.41723633 108.53613281 C188.30434824 91.40646539 180.70364504 77.43518369 169.23828125 65.10546875 C165.22630123 61.25013871 160.65548386 58.44693548 155.8125 55.75 C155.23749756 55.4204834 154.66249512 55.0909668 154.07006836 54.75146484 C125.89268497 39.81267582 60.54929845 48.14424481 48 48 C48 145.68 48 243.36 48 344 C32.16 344 16.32 344 0 344 C0 230.48 0 116.96 0 0 Z " fill="#212121" transform="translate(222,281)"/>
<path d="M0 0 C17.29093152 -0.04693628 34.58184286 -0.08209398 51.87282372 -0.10362434 C59.90319334 -0.11389158 67.93352314 -0.12786366 75.96386719 -0.15087891 C82.97156448 -0.17095346 89.9792329 -0.18374942 96.98695815 -0.18817699 C100.68981164 -0.19076083 104.39258262 -0.1967362 108.09540939 -0.21146011 C146.80105899 -0.35918363 178.48187548 4.93216166 207 33 C223.2728452 49.24167117 232.67743605 69.65454227 237 92 C237.26151855 93.16523193 237.26151855 93.16523193 237.52832031 94.35400391 C242.53741591 122.453682 234.80077112 152.59402257 219 176 C216.4633873 179.45389285 213.77966066 182.73997079 211 186 C210.40832031 186.73734375 209.81664062 187.4746875 209.20703125 188.234375 C196.08574391 204.01349239 178.09895931 213.45178538 159 220 C162.15708556 226.6431974 165.87866546 232.79052781 169.8125 239 C171.15897007 241.13924997 172.50532083 243.27857504 173.8515625 245.41796875 C174.53895508 246.50770996 175.22634766 247.59745117 175.93457031 248.72021484 C179.2013983 253.90775233 182.44293176 259.11102398 185.6875 264.3125 C190.62580029 272.22002744 195.59134345 280.10963322 200.58056641 287.98510742 C204.83504878 294.71244519 209.01424385 301.48528071 213.18676758 308.26367188 C217.26347703 314.86553039 221.45176088 321.388376 225.75024414 327.84814453 C229 332.78591887 229 332.78591887 229 335 C242.53 335 256.06 335 270 335 C270.33 333.68 270.66 332.36 271 331 C272.375 328.75 272.375 328.75 275 327 C279.44404332 326.24312387 283.86590048 325.99085216 288.015625 327.953125 C290.3753844 329.76303755 291.82318765 331.53271022 292.875 334.3125 C292.936875 335.6428125 292.936875 335.6428125 293 337 C293.165 338.299375 293.33 339.59875 293.5 340.9375 C293.4341054 344.41014517 292.58691983 346.05541764 290.125 348.5 C285.70431731 351.85862956 281.32661004 351.57874636 276 351 C276 350.34 276 349.68 276 349 C275.071875 348.9071875 275.071875 348.9071875 274.125 348.8125 C273.42375 348.544375 272.7225 348.27625 272 348 C270.8671875 345.44921875 270.8671875 345.44921875 270 343 C268.87628494 343.04663284 267.75256989 343.09326569 266.59480286 343.14131165 C255.96071251 343.56858655 245.32837756 343.88250701 234.68762684 344.08805561 C229.21720925 344.19730673 223.7537585 344.34514958 218.28735352 344.58422852 C183.06167342 346.08488402 183.06167342 346.08488402 174.82736206 341.06640625 C170.11586435 336.31535255 167.80359097 330.88306496 165.84707642 324.5619812 C164.6801422 321.03259061 162.96733029 318.43084011 160.87109375 315.3671875 C160.29786377 314.4496167 159.72463379 313.5320459 159.1340332 312.58666992 C158.57417725 311.69181885 158.01432129 310.79696777 157.4375 309.875 C156.81383545 308.87766846 156.1901709 307.88033691 155.54760742 306.8527832 C149.72649336 297.55072755 143.86910239 288.27182706 138 279 C130.7423169 267.53453593 123.51758591 256.04939304 116.33862305 244.53442383 C115.74605713 243.58462646 115.15349121 242.6348291 114.54296875 241.65625 C113.96466309 240.728125 113.38635742 239.8 112.79052734 238.84375 C111.53890789 236.85590388 110.27234505 234.87742349 108.99462891 232.90625 C108.35315918 231.91625 107.71168945 230.92625 107.05078125 229.90625 C106.46594971 229.01228516 105.88111816 228.11832031 105.27856445 227.19726562 C104 225 104 225 104 223 C85.85 223 67.7 223 49 223 C49 262.6 49 302.2 49 343 C33.16 343 17.32 343 1 343 C0.81919831 327.23131128 0.67192281 311.46344772 0.58550262 295.69402313 C0.54430413 288.37148349 0.48816865 281.04963498 0.39648438 273.72753906 C0.31658143 267.34326404 0.2650959 260.95948966 0.24729204 254.57472849 C0.23688896 251.19576928 0.2125605 247.81824185 0.15415955 244.43974304 C0.09600207 240.66144238 0.08809082 236.88609876 0.09179688 233.10742188 C0.06303467 231.99539398 0.03427246 230.88336609 0.00463867 229.73764038 C0.06700494 223.85379419 0.66187813 220.67137592 4.88708496 216.41394043 C6.24067011 215.25533377 7.61022224 214.11493495 9 213 C10.34384766 211.64841797 10.34384766 211.64841797 11.71484375 210.26953125 C13.20714407 208.7874347 14.71960569 207.32529172 16.25390625 205.88671875 C24.33571436 198.1878051 32.53621056 188.97874626 37.52876282 178.91989136 C40.35943073 175.57531447 40.35943073 175.57531447 43.98664856 175.26742554 C45.63654695 175.24450144 47.28710049 175.2546287 48.93676758 175.29052734 C49.8398465 175.28632278 50.74292542 175.28211823 51.67337036 175.27778625 C54.66443356 175.27006683 57.65365524 175.30371476 60.64453125 175.3359375 C62.73280741 175.33484312 64.82108414 175.33053219 66.90934753 175.32315063 C72.41938071 175.30972049 77.92876378 175.32858736 83.4387207 175.35760498 C92.21767472 175.40286878 100.99626143 175.41841182 109.77530479 175.39805984 C112.82353596 175.3984289 115.87081186 175.42407178 118.91889954 175.45175171 C138.33836923 175.51484765 155.25195389 171.65037306 170.39453125 158.60546875 C178.53210285 150.46789715 183.57105407 140.93516791 187 130 C187.24492188 129.27941406 187.48984375 128.55882812 187.7421875 127.81640625 C192.33222385 111.68840183 188.85854912 94.12362929 181.14453125 79.74609375 C173.36042467 65.83326126 161.12220561 55.48254986 145.75453281 50.9320631 C135.1159732 48.03131451 125.30606646 47.44759499 114.31988716 47.77519798 C111.35326057 47.85792682 108.38875663 47.89714382 105.42112732 47.92463684 C97.00172994 48.00553054 88.58486204 48.12558669 80.16821289 48.35961914 C74.97790892 48.5008716 69.79157914 48.56295605 64.59943962 48.57552528 C62.64111523 48.59526552 60.6828375 48.64411563 58.72604561 48.72405052 C43.93518113 49.31479574 43.93518113 49.31479574 39.02628708 45.44345474 C35.44090147 41.66127574 32.73149669 37.44126893 30.15040398 32.93335915 C22.83567526 20.64028823 10.88965576 10.1169211 0 1 C0 0.67 0 0.34 0 0 Z M20 7 C21.4268199 9.98780557 22.77432573 11.95305997 25.20703125 14.2109375 C29.15051897 18.04105378 32.40941368 22.22310947 35.6875 26.625 C36.79512683 28.09669001 37.90318887 29.56805258 39.01171875 31.0390625 C39.49084717 31.68053223 39.96997559 32.32200195 40.46362305 32.98291016 C40.97062744 33.6485498 41.47763184 34.31418945 42 35 C42.76809746 36.28097565 42.76809746 36.28097565 43.55171204 37.58782959 C46.43913443 40.43265625 48.22614341 40.59510078 52.20281982 40.65223694 C53.44337128 40.63222878 53.44337128 40.63222878 54.70898438 40.61181641 C55.58762146 40.61748123 56.46625854 40.62314606 57.371521 40.62898254 C60.2793633 40.64249612 63.18596174 40.62152035 66.09375 40.6015625 C68.1219569 40.60706432 70.15015824 40.61519041 72.17834473 40.62582397 C77.52665842 40.64874364 82.87456415 40.64448347 88.22290039 40.63201904 C96.75419462 40.61374632 105.28524504 40.62387183 113.81648254 40.65787888 C116.78324025 40.6639389 119.74947026 40.6507712 122.71618652 40.63589478 C135.48172926 40.62825814 146.7037677 41.7167996 158.1875 47.75 C158.86820557 48.10143066 159.54891113 48.45286133 160.25024414 48.81494141 C177.77606043 58.09319176 189.42082644 73.48263867 195.30859375 92.28125 C198.59007331 105.18469504 198.98576932 121.54558829 194 134 C193.64808594 134.96679688 193.29617188 135.93359375 192.93359375 136.9296875 C185.5548846 156.07049738 173.24512308 169.13732245 154.59375 177.7109375 C143.06085123 181.84773815 132.838175 182.28771716 120.72017097 181.98277664 C115.53612691 181.86393915 110.35112144 181.83542212 105.16601562 181.7890625 C98.60322107 181.72371525 92.04347106 181.63266731 85.48266602 181.45507812 C80.14457328 181.31294555 74.8111609 181.25520096 69.47125053 181.25172043 C67.45238344 181.23512815 65.43350738 181.18824278 63.41612434 181.1090889 C52.54130397 180.46846503 52.54130397 180.46846503 42.89429855 184.67061615 C39.03577969 188.72084427 36.07384705 193.23307456 33.22212029 198.02555466 C31.58798606 200.66564561 29.66282124 202.90665869 27.5625 205.1875 C26.86665802 205.97103851 26.17081604 206.75457703 25.45388794 207.56185913 C23.52058698 209.48275372 21.70376537 211.0116353 19.54000854 212.63076782 C13.58205155 217.33560932 8.97399868 221.79303768 7.76641846 229.54144287 C7.20438309 236.24644233 7.42258684 242.93162456 7.6328125 249.6484375 C7.65896762 252.11701814 7.67887559 254.58567211 7.69284058 257.05435181 C7.74595979 263.51055256 7.88316768 269.96224981 8.03869629 276.41668701 C8.18265537 283.01935919 8.24600962 289.62276886 8.31640625 296.2265625 C8.46595963 309.15332551 8.71191836 322.07558145 9 335 C19.56 335 30.12 335 41 335 C41 295.73 41 256.46 41 216 C63.44 216 85.88 216 109 216 C109.99 218.475 109.99 218.475 111 221 C112.05404547 222.8574859 113.14897493 224.6920896 114.2734375 226.5078125 C114.92707275 227.56693848 115.58070801 228.62606445 116.25415039 229.71728516 C116.9609516 230.85328261 117.66790504 231.98918537 118.375 233.125 C119.10497905 234.30372342 119.83471292 235.48259871 120.56420898 236.66162109 C125.64492923 244.863081 130.78114683 253.02913096 135.94921875 261.17578125 C139.45258108 266.70382151 142.91219021 272.25900387 146.375 277.8125 C151.25150475 285.63021083 156.16588655 293.42194292 161.125 301.1875 C165.90590569 308.67665654 170.63464542 316.19601097 175.3125 323.75 C175.87018066 324.65000732 176.42786133 325.55001465 177.00244141 326.47729492 C180.86912364 332.73824728 180.86912364 332.73824728 182 335 C194.21 335 206.42 335 219 335 C218.03523212 331.1409285 216.89766156 328.92659126 214.82421875 325.58984375 C214.16736084 324.52749512 213.51050293 323.46514648 212.83374023 322.37060547 C212.11849181 321.22613385 211.40307443 320.08176781 210.6875 318.9375 C209.95282307 317.75430693 209.21853293 316.57087362 208.48461914 315.38720703 C203.38090424 307.16700106 198.22396718 298.98026391 193.04296875 290.80859375 C183.45814019 275.68179649 174.02519626 260.4602151 164.66064453 245.19628906 C161.74292322 240.44314525 158.81926069 235.69524523 155.83984375 230.98046875 C155.37425049 230.243125 154.90865723 229.50578125 154.42895508 228.74609375 C153.59527004 227.42992968 152.75819185 226.11590484 151.91674805 224.8046875 C149.90546853 221.63035011 148.2629094 218.5427932 147 215 C148.24652344 214.67128906 149.49304688 214.34257812 150.77734375 214.00390625 C167.07050072 209.52578308 181.26554868 203.32204348 194 192 C194.73089844 191.41089844 195.46179688 190.82179688 196.21484375 190.21484375 C214.80398092 174.82735059 226.84323826 150.78947022 230 127 C230.32154264 121.97885024 230.38996974 116.9673341 230.375 111.9375 C230.37445618 111.25091309 230.37391235 110.56432617 230.37335205 109.85693359 C230.33415733 99.09312356 229.52288643 89.22737967 226 79 C225.38125 77.12634766 225.38125 77.12634766 224.75 75.21484375 C215.96702181 50.29763735 197.11894828 30.36837639 174 18 C152.09013469 7.64824927 130.63471933 6.69990381 106.81640625 6.8046875 C104.30435805 6.80842452 101.79230837 6.81126823 99.28025818 6.81326294 C93.38396254 6.82007358 87.48774503 6.83577527 81.59148115 6.85596192 C74.20618333 6.88068691 66.82087561 6.8912898 59.43554688 6.90234375 C46.29032627 6.92369801 33.14516799 6.95737496 20 7 Z " fill="#F4F5F5" transform="translate(422,282)"/>
<path d="M0 0 C168.42812983 0 168.42812983 0 202 29 C202.74765625 29.64453125 203.4953125 30.2890625 204.265625 30.953125 C219.1369311 44.85719168 229.80733583 64.45973364 235 84 C235.18256348 84.67844971 235.36512695 85.35689941 235.55322266 86.0559082 C237.51767137 94.36737619 237.48217682 102.81948336 237.5 111.3125 C237.50451675 112.50879028 237.50451675 112.50879028 237.50912476 113.72924805 C237.50596461 126.98857327 235.9320609 138.59825824 231 151 C230.59394531 152.13308594 230.18789063 153.26617187 229.76953125 154.43359375 C224.57535604 168.06608773 216.79110945 179.33663135 207 190 C206.27039063 190.81210937 205.54078125 191.62421875 204.7890625 192.4609375 C190.60649598 207.48707675 171.10458883 217.63042157 151 222 C149.93781502 222.24960732 149.93781502 222.24960732 148.85417175 222.5042572 C140.230399 224.33053154 131.71865516 224.25524522 122.95703125 224.1953125 C121.33607662 224.19157416 119.7151197 224.18873107 118.09416199 224.18673706 C113.86426358 224.17916519 109.63450638 224.1595735 105.40466309 224.1373291 C100.31002469 224.11309748 95.21533862 224.10405894 90.12065887 224.09242249 C82.4136749 224.07314422 74.7069997 224.03477714 67 224 C67 208.16 67 192.32 67 176 C71.99769531 175.96261719 76.99539063 175.92523438 82.14453125 175.88671875 C85.33011115 175.85640607 88.5156374 175.82523678 91.70117188 175.79101562 C96.74598322 175.73690139 101.79068846 175.6857844 106.83569336 175.65356445 C110.9078003 175.62735808 114.97954632 175.58683658 119.05142784 175.53681374 C120.59692548 175.52026123 122.14248537 175.50867523 123.68805885 175.50238609 C135.64929143 175.44883805 146.15983696 174.11707466 156.75 168.1875 C157.39340332 167.83204102 158.03680664 167.47658203 158.69970703 167.11035156 C171.38861566 159.94355774 180.00831701 148.70265918 185 135 C185.31839844 134.15953125 185.63679687 133.3190625 185.96484375 132.453125 C188.1366517 125.52735955 188.30766206 118.63632897 188.375 111.4375 C188.38893799 110.48004883 188.40287598 109.52259766 188.41723633 108.53613281 C188.30434824 91.40646539 180.70364504 77.43518369 169.23828125 65.10546875 C165.22630123 61.25013871 160.65548386 58.44693548 155.8125 55.75 C155.23749756 55.4204834 154.66249512 55.0909668 154.07006836 54.75146484 C125.89268497 39.81267582 60.54929845 48.14424481 48 48 C48 145.68 48 243.36 48 344 C32.16 344 16.32 344 0 344 C0 230.48 0 116.96 0 0 Z M8 8 C8 116.57 8 225.14 8 337 C18.56 337 29.12 337 40 337 C40 238.99 40 140.98 40 40 C155.09455162 41.22441012 155.09455162 41.22441012 177.33984375 62.20703125 C183.88108841 68.94954497 188.13841429 76.52223972 192 85 C192.45761719 85.99257813 192.91523438 86.98515625 193.38671875 88.0078125 C200.19810225 105.93250592 196.59606181 127.96640684 189 145 C185.70159887 151.38342861 181.71282957 156.61390907 177 162 C177 162.66 177 163.32 177 164 C176.42507813 164.26167969 175.85015625 164.52335938 175.2578125 164.79296875 C172.85398957 166.07805748 170.96847298 167.57051418 168.875 169.3125 C157.52811036 178.21999317 143.21418126 182.99261758 128.81103516 183.20532227 C127.61024323 183.22526749 126.40945129 183.24521271 125.17227173 183.26576233 C123.25008316 183.29083107 123.25008316 183.29083107 121.2890625 183.31640625 C119.95241696 183.33700309 118.61577754 183.35800024 117.27914429 183.37937927 C113.77757753 183.43431826 110.27595475 183.48385056 106.77429199 183.53222656 C103.19453004 183.58264861 99.61484746 183.63817666 96.03515625 183.69335938 C89.02349917 183.80107469 82.01179426 183.90031629 75 184 C75 194.56 75 205.12 75 216 C82.91370211 216.06330962 90.82646068 216.12336573 98.74019623 216.15525055 C102.42725211 216.17094335 106.11409336 216.19182911 109.80102539 216.22631836 C145.73172729 216.55325635 174.32233117 211.1732562 201 185.4375 C220.77453739 165.68510301 230.00278373 138.31838547 230.375 110.8125 C230.31478008 82.19645578 218.30699592 56.75687196 198.4453125 36.37890625 C191.9040115 30.15045008 184.87016263 25.39861219 177 21 C176.15695312 20.52820313 175.31390625 20.05640625 174.4453125 19.5703125 C125.64500548 -6.18984957 52.60505391 8 8 8 Z " fill="#F2F3F3" transform="translate(222,281)"/>
<path d="M0 0 C1.65 0 3.3 0 5 0 C5.33 1.65 5.66 3.3 6 5 C3 5 3 5 1.3125 3.625 C0 2 0 2 0 0 Z " fill="#333332" transform="translate(443,290)"/>
</svg>
